<?xml version="1.0" encoding="utf-8"?>
<!-- Generator: Adobe Illustrator 16.0.4, SVG Export Plug-In . SVG Version: 6.00 Build 0)  -->
<!DOCTYPE svg PUBLIC "-//W3C//DTD SVG 1.1//EN" "http://www.w3.org/Graphics/SVG/1.1/DTD/svg11.dtd">
<svg version="1.1" id="Layer_1" xmlns="http://www.w3.org/2000/svg" xmlns:xlink="http://www.w3.org/1999/xlink" x="0px" y="0px"
	 width="35.494px" height="30.289px" viewBox="0.253 2 35.494 30.289" enable-background="new 0.253 2 35.494 30.289"
	 xml:space="preserve">
<g>
	<path fill="none" d="M2.872,3.055C2.335,3.102,1.913,3.544,1.913,4.094c0,0.548,0.422,0.993,0.959,1.038v0.009h0.525l0.001-0.696
		c0-0.501,0.102-0.972,0.279-1.398H2.872V3.055z"/>
	<path fill="none" d="M4.386,5.141h0.016V4.356c0-0.155,0.018-0.296,0.038-0.436C4.407,4.089,4.387,4.265,4.387,4.446L4.386,5.141z"
		/>
	<path fill="#333333" d="M4.402,29.41V5.141H4.386L4.351,30.373c-0.002,1.408,1.016,1.814,1.864,1.915h0.806
		C5.45,32.288,4.402,30.973,4.402,29.41z"/>
	<path fill="#333333" d="M8.656,5.138C8.663,5.139,8.67,5.141,8.678,5.141c0.579,0,1.047-0.468,1.047-1.047
		c0-0.456-0.296-0.834-0.703-0.978C8.794,3.5,8.658,3.953,8.657,4.449L8.656,5.138z"/>
	<path fill="#333333" d="M7.021,2H6.418c-0.325,0.045-0.624,0.155-0.89,0.321C5.938,2.109,6.442,2,7.021,2z"/>
	<path fill="#333333" d="M5.463,2.357C5.438,2.375,5.411,2.392,5.386,2.411C5.413,2.394,5.436,2.373,5.463,2.357z"/>
	<path fill="#333333" d="M3.397,5.141H2.872v-0.01c-0.537-0.045-0.959-0.49-0.959-1.038c0-0.549,0.422-0.992,0.959-1.039V3.046
		h0.805C3.84,2.653,4.069,2.299,4.354,2H2.872C1.296,2,0.253,2.792,0.253,4.356V29.41c0,1.562,1.047,2.878,2.619,2.878h1.177
		c-0.437-0.491-0.687-1.136-0.687-1.917L3.397,5.141z"/>
	<path fill="#333333" d="M7.667,5.141H7.021v-0.01c-0.537-0.045-0.959-0.49-0.959-1.038c0-0.549,0.422-0.992,0.959-1.039V3.046
		h0.927C8.112,2.653,8.341,2.299,8.626,2H7.021C6.442,2,5.938,2.109,5.528,2.321C5.505,2.333,5.485,2.346,5.463,2.357
		C5.436,2.373,5.413,2.393,5.386,2.41C4.874,2.728,4.539,3.23,4.44,3.92C4.42,4.06,4.402,4.201,4.402,4.356v0.785v24.27
		c0,1.562,1.047,2.878,2.619,2.878h1.295c-0.436-0.49-0.685-1.133-0.684-1.913L7.667,5.141z"/>
	<path fill="none" d="M21.091,7.211c-0.024,0-0.05,0.006-0.075,0.007V7.211h-1.342v0.007c-0.459,0.04-0.82,0.418-0.82,0.889
		c0,0.468,0.361,0.849,0.82,0.887v0.008h1.342V8.995c0.025,0.002,0.051,0.008,0.075,0.008c0.495,0,0.896-0.4,0.896-0.895
		S21.586,7.211,21.091,7.211z"/>
	<path fill="#333333" d="M33.51,6.382h-0.542c0.378,0.42,0.593,0.98,0.593,1.664v22.118c0,0.844-0.312,1.591-0.817,2.124h0.769
		c1.312,0,2.235-1.14,2.235-2.461V8.397C35.746,7.08,34.848,6.382,33.51,6.382z"/>
	<path fill="#333333" d="M32.738,30.164V8.046c0-1.377-1.063-1.64-1.778-1.664h-1.104c0.455,0.43,0.711,1.042,0.711,1.798v22.118
		c0,0.777-0.271,1.468-0.707,1.989h1.031C31.932,32.259,32.738,31.339,32.738,30.164z"/>
	<path fill="none" d="M12.895,3.046c-0.03,0-0.058,0.007-0.087,0.009V3.046h-1.569v0.009c-0.537,0.046-0.959,0.489-0.959,1.039
		c0,0.548,0.422,0.993,0.959,1.038v0.009h1.569v-0.01c0.029,0.002,0.057,0.009,0.087,0.009c0.579,0,1.047-0.468,1.047-1.047
		C13.942,3.516,13.474,3.046,12.895,3.046z"/>
	<path fill="#333333" d="M16.351,8.64c0-1.647,1.188-2.938,2.706-2.938h4.217V4.356C23.273,2.815,22.223,2,20.659,2h-5.624h-3.796
		c-0.744,0-1.362,0.183-1.815,0.533C8.917,2.925,8.62,3.529,8.62,4.356V29.41c0,1.562,1.047,2.878,2.619,2.878h5.592
		c-0.307-0.403-0.48-0.917-0.48-1.53V8.64z M12.895,5.141c-0.03,0-0.058-0.007-0.087-0.009v0.009h-1.569v-0.01
		c-0.537-0.045-0.959-0.49-0.959-1.038c0-0.549,0.422-0.992,0.959-1.039V3.046h1.569v0.009c0.029-0.001,0.057-0.009,0.087-0.009
		c0.579,0,1.047,0.469,1.047,1.047C13.942,4.672,13.474,5.141,12.895,5.141z"/>
	<path fill="#333333" d="M27.848,6.512V6.499h-3.267h-5.524c-0.361,0-0.693,0.115-0.979,0.303c-0.559,0.37-0.93,1.043-0.93,1.838
		v22.118c0,0.908,0.46,1.335,0.979,1.53H28.52c0.723-0.3,1.227-1.063,1.227-1.989V8.181C29.745,6.729,28.557,6.512,27.848,6.512z
		 M21.091,9.002c-0.024,0-0.05-0.006-0.075-0.008v0.008h-1.342V8.995c-0.459-0.039-0.82-0.419-0.82-0.887
		c0-0.47,0.361-0.849,0.82-0.889V7.211h1.342v0.007c0.025-0.001,0.051-0.007,0.075-0.007c0.495,0,0.896,0.401,0.896,0.896
		S21.586,9.002,21.091,9.002z"/>
</g>
</svg>
