<?xml version="1.0" encoding="utf-8"?>
<!-- Generator: Adobe Illustrator 16.0.4, SVG Export Plug-In . SVG Version: 6.00 Build 0)  -->
<!DOCTYPE svg PUBLIC "-//W3C//DTD SVG 1.1//EN" "http://www.w3.org/Graphics/SVG/1.1/DTD/svg11.dtd">
<svg version="1.1" id="Layer_1" xmlns="http://www.w3.org/2000/svg" xmlns:xlink="http://www.w3.org/1999/xlink" x="0px" y="0px"
	 width="25.013px" height="24.338px" viewBox="5.143 6.7 25.013 24.338" enable-background="new 5.143 6.7 25.013 24.338"
	 xml:space="preserve">
<g>
	<path fill="#333333" d="M23.658,18.322l-0.281-0.048v-0.286c0.002-2.459-1.953-4.415-4.357-4.415c-1.781,0-3.365,1.067-4.038,2.719
		l-0.188,0.462l-0.359-0.346c-0.345-0.332-0.795-0.515-1.268-0.515c-1.009,0-1.83,0.821-1.83,1.832l0.035,0.398l-0.262,0.078
		c-1.28,0.38-2.14,1.523-2.14,2.847c0,1.647,1.34,2.985,2.986,2.985h11.219c1.589,0,2.882-1.292,2.882-2.881
		C26.057,19.749,25.048,18.559,23.658,18.322z"/>
	<path fill="#333333" d="M23.846,6.7H11.454c-3.485,0-6.311,2.825-6.311,6.31v11.719c0,3.484,2.826,6.31,6.311,6.31h12.392
		c3.484,0,6.311-2.824,6.311-6.31v-11.72C30.154,9.525,27.33,6.7,23.846,6.7z M23.175,24.711H11.956
		c-2.02,0-3.662-1.643-3.662-3.662c0-1.533,0.941-2.873,2.367-3.409c0.046-1.343,1.152-2.421,2.505-2.421
		c0.495,0,0.97,0.146,1.376,0.413c0.858-1.675,2.571-2.733,4.478-2.733c2.703,0,4.916,2.141,5.031,4.816
		c1.569,0.396,2.682,1.799,2.682,3.44C26.73,23.115,25.137,24.711,23.175,24.711z"/>
</g>
<path fill="#333333" d="M23.684,18.237l-0.27-0.068v-0.271c0-2.436-1.963-4.398-4.332-4.398c-1.759,0-3.383,1.083-4.06,2.707
	l-0.203,0.474l-0.338-0.338c-0.338-0.338-0.812-0.542-1.286-0.542c-1.015,0-1.827,0.812-1.827,1.827l0.068,0.406l-0.271,0.068
	C9.88,18.508,9,19.658,9,20.943c0,1.625,1.354,2.978,2.978,2.978h11.233c1.557,0,2.909-1.286,2.909-2.909
	C26.053,19.658,25.105,18.508,23.684,18.237z"/>
<path fill="#E4E4E4" d="M24.09,17.628c-0.135-2.707-2.301-4.805-5.008-4.805c-1.894,0-3.653,1.083-4.465,2.707
	c-0.406-0.271-0.88-0.406-1.354-0.406c-1.354,0-2.436,1.083-2.504,2.436c-1.421,0.542-2.368,1.895-2.368,3.383
	c0,2.029,1.624,3.654,3.654,3.654h11.232c1.963,0,3.588-1.625,3.588-3.587C26.729,19.455,25.646,18.034,24.09,17.628z
	 M23.211,23.988H11.978C10.354,23.988,9,22.635,9,21.012c0-1.354,0.88-2.437,2.166-2.843l0.271-0.067l-0.068-0.406
	c0-1.015,0.812-1.827,1.827-1.827c0.474,0,0.948,0.203,1.286,0.542l0.338,0.338l0.203-0.474c0.677-1.624,2.233-2.707,4.06-2.707
	c2.437,0,4.332,1.962,4.332,4.398v0.271l0.271,0.068c1.422,0.203,2.369,1.421,2.369,2.841
	C26.053,22.703,24.768,23.988,23.211,23.988z"/>
</svg>
