<?xml version="1.0" encoding="utf-8"?>
<!-- Generator: Adobe Illustrator 16.0.4, SVG Export Plug-In . SVG Version: 6.00 Build 0)  -->
<!DOCTYPE svg PUBLIC "-//W3C//DTD SVG 1.1//EN" "http://www.w3.org/Graphics/SVG/1.1/DTD/svg11.dtd">
<svg version="1.1" id="Layer_1" xmlns="http://www.w3.org/2000/svg" xmlns:xlink="http://www.w3.org/1999/xlink" x="0px" y="0px"
	 width="20.442px" height="20.13px" viewBox="8.057 8.25 20.442 20.13" enable-background="new 8.057 8.25 20.442 20.13"
	 xml:space="preserve">
<g>
	<path fill="#333333" d="M23.167,28.38H13.39c-2.94,0-5.333-2.394-5.333-5.334v-9.462c0-2.941,2.392-5.334,5.333-5.334h9.777
		c2.94,0,5.332,2.393,5.332,5.334v9.462C28.499,25.986,26.108,28.38,23.167,28.38z M13.39,8.822c-2.624,0-4.761,2.136-4.761,4.761
		v9.462c0,2.625,2.137,4.762,4.761,4.762h9.777c2.625,0,4.761-2.137,4.761-4.762v-9.462c0-2.625-2.136-4.761-4.761-4.761H13.39z"/>
	<g>
		<path d="M18.493,11.319c0.514,0,0.977,0.09,1.391,0.269c0.412,0.179,0.767,0.418,1.06,0.719c0.292,0.301,0.515,0.647,0.662,1.041
			c0.149,0.393,0.226,0.804,0.226,1.234c0,0.3-0.039,0.608-0.117,0.923c-0.079,0.314-0.215,0.622-0.409,0.923
			c-0.194,0.3-0.452,0.586-0.774,0.858s-0.734,0.523-1.236,0.751v0.086c1.024,0.429,1.779,0.938,2.263,1.523
			c0.485,0.588,0.726,1.33,0.726,2.231c0,0.658-0.108,1.229-0.33,1.717c-0.22,0.487-0.52,0.888-0.896,1.201
			c-0.378,0.315-0.81,0.552-1.292,0.709c-0.482,0.156-0.981,0.236-1.494,0.236c-0.57,0-1.101-0.086-1.59-0.259
			c-0.49-0.172-0.915-0.418-1.271-0.739c-0.355-0.322-0.633-0.709-0.833-1.16c-0.199-0.45-0.297-0.946-0.297-1.49
			c0-0.987,0.266-1.81,0.8-2.468s1.256-1.173,2.167-1.545v-0.086c-0.853-0.372-1.464-0.836-1.833-1.395
			c-0.37-0.558-0.554-1.159-0.554-1.802c0-0.558,0.093-1.051,0.278-1.481c0.186-0.429,0.441-0.794,0.77-1.094
			c0.328-0.301,0.71-0.526,1.146-0.676c0.435-0.15,0.908-0.226,1.423-0.226L18.493,11.319L18.493,11.319z M18.259,25.27
			c1.111,0,1.992-0.293,2.641-0.879c0.648-0.589,0.975-1.375,0.975-2.363c0-1.071-0.328-1.897-0.984-2.478s-1.609-1.034-2.867-1.363
			c-1.069,0.329-1.886,0.831-2.45,1.502c-0.562,0.672-0.845,1.424-0.845,2.252c-0.015,0.443,0.053,0.869,0.204,1.276
			c0.147,0.408,0.374,0.763,0.675,1.063c0.299,0.3,0.669,0.539,1.111,0.718c0.441,0.181,0.948,0.269,1.52,0.269h0.021V25.27z
			 M18.376,11.792c-0.487,0-0.92,0.075-1.299,0.225c-0.38,0.15-0.702,0.357-0.966,0.622c-0.266,0.265-0.465,0.569-0.601,0.912
			c-0.137,0.344-0.204,0.708-0.204,1.094c-0.016,0.931,0.278,1.652,0.88,2.168c0.601,0.515,1.4,0.887,2.404,1.116
			c0.814-0.314,1.484-0.733,2.006-1.255c0.521-0.521,0.783-1.213,0.783-2.071c0-0.343-0.057-0.683-0.162-1.02
			c-0.107-0.336-0.282-0.636-0.524-0.901c-0.245-0.265-0.552-0.479-0.924-0.644c-0.371-0.164-0.829-0.246-1.374-0.246H18.376z"/>
	</g>
</g>
</svg>
